PathFileType	4	(X/Y/Z)	C:\Users\willi\Desktop\Data_PaperCallum_v2\17_Akif\Gait01\marker_experimental_temp.trc
DataRate	CameraRate	NumFrames	NumMarkers	Units	OrigDataRate	OrigDataStartFrame	OrigNumFrames
100.000000	100.000000	6	27	mm	100.000000	90	180
Frame#	Time	C7			T10			Clav			Sternum			Right_Back			PCL_CRAN			PCL_RECHTS			PCL_LINKS			RCL_UL_CRAN			RCL_UL_POST			RCL_UL_ANT			RCL_LL_CRAN			RCL_LL_POST			RCL_LL_ANT			Right_Heel			Right_Toe			Right_M5			LCL_UL_CRAN			LCL_UL_POST			LCL_UL_ANT			LCL_LL_CRAN			LCL_LL_POST			LCL_LL_ANT			Left_Heel			Left_Toe			Left_M5			*26			
		X1	Y1	Z1	X2	Y2	Z2	X3	Y3	Z3	X4	Y4	Z4	X5	Y5	Z5	X6	Y6	Z6	X7	Y7	Z7	X8	Y8	Z8	X9	Y9	Z9	X10	Y10	Z10	X11	Y11	Z11	X12	Y12	Z12	X13	Y13	Z13	X14	Y14	Z14	X15	Y15	Z15	X16	Y16	Z16	X17	Y17	Z17	X18	Y18	Z18	X19	Y19	Z19	X20	Y20	Z20	X21	Y21	Z21	X22	Y22	Z22	X23	Y23	Z23	X24	Y24	Z24	X25	Y25	Z25	X26	Y26	Z26	X27	Y27	Z27	

91	0.9	325.8025817871093	1410.439331054688	218.4589385986328	364.5636291503906	1194.144897460938	225.800796508789	183.9666137695312	1336.094482421875	216.5248870849609	126.1757202148437	1172.070556640625	226.4070129394531	364.0401916503906	1349.180908203125	103.9678268432617	354.0030212402343	1024.665893554688	221.5809936523437	365.0139160156249	966.0443725585938	198.089126586914	363.7769775390624	965.012451171875	248.5756530761718	204.2921600341796	734.07958984375	31.83777999877928	205.2818756103515	668.7140502929688	35.14687347412108	160.1715850830078	687.0316772460938	23.89661407470702	206.0822448730468	409.2080688476563	38.88947296142577	259.9541931152344	371.4114990234375	43.36288452148436	216.1859283447265	344.3142700195313	43.24745941162108	447.1119995117188	152.4452667236328	152.2117767333984	280.675537109375	66.07467651367189	106.6816711425781	334.1025085449219	71.83177185058595	64.72415161132811	234.9268646240234	749.24609375	386.9533081054688	246.4728851318359	685.6727294921875	376.3551330566406	198.2126007080078	695.35888671875	383.2622680664063	274.129638671875	370.4478149414063	341.3551025390625	302.8752746582031	311.9471435546875	341.3308715820313	252.491943359375	309.0047302246094	335.4714050292969	377.5664367675781	34.52242279052737	249.9878234863281	169.6055908203125	30.60621643066407	255.6131439208984	217.9410247802735	11.49017715454103	318.3248901367188	-88.03170776367212	726.4829711914063	-3209.42578125	
92	0.91	312.0250549316405	1410.704956054688	218.179214477539	351.2222595214843	1194.473266601563	225.5995941162109	170.3896331787109	1336.011962890625	216.0504455566406	113.0050811767578	1171.848388671875	226.5758666992188	350.5785522460937	1349.28125	104.1152420043945	341.0461120605468	1024.846069335938	220.6555633544922	351.9969787597656	966.3638305664063	196.7968139648437	351.0953674316406	965.0790405273438	247.2993927001953	186.4461059570312	736.2862548828125	31.02672576904296	185.9675140380859	670.8292846679688	34.29464721679686	141.1399383544922	690.20068359375	23.87829589843749	181.0491333007812	409.3073120117188	39.72195434570311	232.5898284912109	368.6139221191406	44.23343658447264	187.4820709228515	343.8635559082031	43.55716323852538	406.1865844726563	137.3128509521485	152.8100128173828	234.9174194335938	63.86161041259767	102.1904983520508	289.2841491699219	67.07437133789064	61.5131378173828	226.061782836914	749.0059814453125	385.9898681640625	238.5533142089844	685.686767578125	374.9356384277344	190.1512603759766	694.5648803710938	382.3775329589844	272.0588684082031	370.8701782226563	340.3712463378906	301.4422912597656	312.6719055175781	340.5480041503906	251.03125	309.1817016601563	334.7609558105469	377.3476257324219	35.09935379028322	249.3170776367187	169.5171966552735	30.51353645324708	255.6992797851563	217.9937744140625	11.51452064514162	318.3115234375	-88.03266906738305	726.483642578125	-3209.4326171875	
93	0.92	298.2317504882811	1410.679321289063	217.8457641601562	337.8749389648437	1194.527709960938	225.279067993164	156.7840423583984	1335.631591796875	215.5549774169922	99.81248474121088	1171.328002929688	226.7296447753906	337.0801086425781	1349.093505859375	104.2130737304687	328.0821838378906	1024.7373046875	219.5573120117187	338.9518127441406	966.3741455078125	195.3801116943359	338.4124145507812	964.8800048828125	245.8972473144531	168.826187133789	738.11279296875	30.31773757934569	166.9506072998047	672.6578369140625	33.43399047851562	122.3415145874023	693.0108032226563	24.0342903137207	156.4323120117187	408.8297119140625	40.61842346191406	205.3789367675781	365.2479553222656	45.0320358276367	159.0133819580078	343.0520935058594	43.96417617797851	363.850830078125	122.0366134643555	153.1337432861328	188.7007141113281	61.81978225708009	98.0824508666992	243.7830200195313	62.23377609252931	58.52120208740233	217.1745147705078	748.6471557617188	384.9666137695313	230.6342620849609	685.5939331054688	373.4965515136719	182.0895233154297	693.6560668945313	381.309326171875	269.8583984375	371.2801513671875	339.2914428710938	299.9192504882813	313.4275817871094	339.7551574707031	249.5521697998047	309.3084411621094	333.7679138183594	377.1089172363281	35.70286178588869	248.4904174804687	169.4217376708985	30.42934036254884	255.7892456054688	218.07470703125	11.57090377807619	318.2698364257813	-88.0339736938479	726.484130859375	-3209.440185546875	
94	0.93	284.4151916503905	1410.364379882813	217.4564971923828	324.5133972167968	1194.310668945313	224.8333435058593	143.1406860351562	1334.957397460938	215.0324096679688	86.59190368652338	1170.512451171875	226.8541717529297	323.5419921874999	1348.621704101563	104.2584228515625	315.0979309082031	1024.3388671875	218.2859191894531	325.8622436523437	966.0709838867188	193.844497680664	325.7110900878906	964.4163818359375	244.3741149902343	151.4864807128906	739.5048828125	29.73457717895507	148.2830505371093	674.1433715820313	32.63055419921874	103.8342590332031	695.4050903320313	24.34173202514648	132.2468566894531	407.7984924316406	41.54731369018554	178.3492126464843	361.3687744140625	45.74769592285155	130.8277282714843	341.9278564453125	44.43016052246093	320.1581420898438	106.9197998046875	153.1360321044922	142.0508422851563	60.08967208862305	94.41893005371092	197.5851287841797	57.46305084228517	55.7560691833496	208.2335815429687	748.1761474609375	383.8981628417969	222.6735382080078	685.3942260742188	372.0866088867188	173.9874114990234	692.642822265625	380.0783386230469	267.4913330078125	371.6729431152344	338.1360473632813	298.2695007324219	314.2066345214844	338.9377136230469	248.0168609619141	309.3988342285156	332.5690307617188	376.8538208007813	36.34008407592776	247.5063934326172	169.3199005126953	30.3558921813965	255.8826904296875	218.191650390625	11.66512680053712	318.19580078125	-88.03562164306665	726.484619140625	-3209.448974609375	
95	0.9400000000000001	270.5686645507811	1409.765991210938	217.0085754394531	311.1286315917968	1193.827270507813	224.25830078125	129.4513854980468	1333.997314453125	214.476318359375	73.33686828613276	1169.41015625	226.9366149902344	309.9616088867187	1347.87255859375	104.2479934692383	302.0784301757812	1023.654174804688	216.8428192138672	312.7107543945312	965.454345703125	192.195068359375	312.9728698730468	963.6917114257813	242.7342681884765	134.4885101318359	740.4091796875	29.29359054565429	130.0355529785156	675.2188110351563	31.96382522583007	85.70066833496089	697.3140258789063	24.77432823181152	108.5032043457031	406.26025390625	42.47996139526366	151.5272369384765	357.0576171875	46.34329986572265	102.9716567993164	340.5558166503906	44.91506958007812	275.2167663574219	92.29162597656251	152.7770538330078	95.03097534179688	58.83269500732423	91.22371673583984	150.7205352783203	52.9631462097168	53.19905853271484	199.2160491943359	747.601318359375	382.8046264648438	214.6333923339844	685.0889892578125	370.7478942871094	165.8108520507813	691.53759765625	378.7295837402344	264.9234924316406	372.0464477539063	336.9290771484375	296.4503784179688	314.9972839355469	338.0732116699219	246.3636627197266	309.4708557128906	331.2568969726563	376.5882263183594	37.02470397949221	246.3840637207031	169.21630859375	30.29304885864259	255.9786987304688	218.3502502441407	11.79924678802492	318.0867614746094	-88.0376129150393	726.4849853515625	-3209.458740234375	
96	0.9500000000000001	256.6863403320311	1408.8935546875	216.4985809326172	297.7106933593749	1193.08544921875	223.5516662597656	115.7087326049804	1332.76416015625	213.8800964355469	60.04013061523432	1168.034057617188	226.9658050537109	296.3362121582031	1346.855834960938	104.1780242919922	289.0069885253906	1022.689880371094	215.2314300537109	299.4784240722656	964.529052734375	190.4365539550781	300.1774291992187	962.712158203125	240.9815368652343	117.8923568725586	740.7767333984375	29.00041580200195	112.2958755493164	675.8102416992188	31.50827980041503	68.04157257080074	698.6553955078125	25.30576515197754	85.20491790771482	404.2832336425781	43.39304733276366	124.9398345947265	352.42236328125	46.77892303466796	75.49075317382811	339.0177307128906	45.38125991821288	229.2000274658203	78.49714660644533	152.0270385742188	47.75974273681641	58.22441101074219	88.47940063476563	103.2864761352539	48.97808837890626	50.80848693847656	190.1078948974609	746.9329223632813	381.7091064453125	206.4837341308594	684.6818237304688	369.5103759765625	157.5346527099609	690.3539428710938	377.3263854980469	262.1215209960938	372.4005737304688	335.6985778808594	294.4163513183594	315.7876586914063	337.1453247070313	244.5191955566406	309.5389404296875	329.9212646484375	376.3189086914063	37.7766799926758	245.1648406982422	169.1179504394532	30.23918914794923	256.0757751464844	218.5525817871094	11.97033214569093	317.943115234375	-88.03994750976587	726.4852294921875	-3209.46923828125	
